<svg width="40" height="40" viewBox="0 0 40 40" fill="none" xmlns="http://www.w3.org/2000/svg">
<path fill-rule="evenodd" clip-rule="evenodd" d="M9.54248 12.8333C9.54248 10.5552 11.3893 8.70833 13.6675 8.70833C15.9457 8.70833 17.7925 10.5552 17.7925 12.8333C17.7925 15.1115 15.9457 16.9583 13.6675 16.9583C11.3893 16.9583 9.54248 15.1115 9.54248 12.8333ZM13.6675 11.9583C13.1842 11.9583 12.7925 12.3501 12.7925 12.8333C12.7925 13.3166 13.1842 13.7083 13.6675 13.7083C14.1507 13.7083 14.5425 13.3166 14.5425 12.8333C14.5425 12.3501 14.1507 11.9583 13.6675 11.9583Z" fill="#C5C6C5"/>
<path fill-rule="evenodd" clip-rule="evenodd" d="M25.6302 14.2922C25.3666 13.7474 24.822 13.3942 24.217 13.3758C23.6119 13.3573 23.0468 13.6767 22.7505 14.2045L18.6869 21.4428L17.5015 19.7387C17.1995 19.3046 16.7051 19.0446 16.1763 19.0417C15.6475 19.0388 15.1503 19.2935 14.8437 19.7243L7.84365 29.5576C7.49092 30.0531 7.44443 30.7041 7.72319 31.2447C8.00194 31.7853 8.55925 32.125 9.16749 32.125H31.6675C32.2269 32.125 32.747 31.8372 33.0442 31.3633C33.3414 30.8893 33.3739 30.2958 33.1302 29.7922L25.6302 14.2922ZM20.2511 25.2955L24.0606 18.5099L29.076 28.875H12.319L16.1522 23.4902L17.5002 25.428C17.8198 25.8874 18.3533 26.15 18.9123 26.1231C19.4713 26.0962 19.9772 25.7835 20.2511 25.2955Z" fill="#C5C6C5"/>
<path fill-rule="evenodd" clip-rule="evenodd" d="M3.70898 8.33333C3.70898 5.60254 5.93652 3.375 8.66732 3.375H32.0007C34.7314 3.375 36.959 5.60254 36.959 8.33333V31.6667C36.959 34.3975 34.7314 36.625 32.0007 36.625H8.66732C5.93652 36.625 3.70898 34.3975 3.70898 31.6667V8.33333ZM8.66732 6.625C7.73145 6.625 6.95898 7.39746 6.95898 8.33333V31.6667C6.95898 32.6025 7.73145 33.375 8.66732 33.375H32.0007C32.9365 33.375 33.709 32.6025 33.709 31.6667V8.33333C33.709 7.39746 32.9365 6.625 32.0007 6.625H8.66732Z" fill="#C5C6C5"/>
</svg>
