<svg width="334" height="280" viewBox="0 0 334 280" fill="none" xmlns="http://www.w3.org/2000/svg">
<rect x="0.5" y="0.5" width="333" height="279" fill="white"/>
<path fill-rule="evenodd" clip-rule="evenodd" d="M129.623 115.892C129.623 107.96 136.037 101.531 143.949 101.531C151.861 101.531 158.275 107.96 158.275 115.892C158.275 123.823 151.861 130.253 143.949 130.253C136.037 130.253 129.623 123.823 129.623 115.892ZM143.949 112.846C142.271 112.846 140.91 114.209 140.91 115.892C140.91 117.574 142.271 118.938 143.949 118.938C145.628 118.938 146.988 117.574 146.988 115.892C146.988 114.209 145.628 112.846 143.949 112.846Z" fill="#C5C6C5"/>
<path fill-rule="evenodd" clip-rule="evenodd" d="M185.496 120.971C184.58 119.074 182.689 117.844 180.588 117.78C178.486 117.716 176.524 118.828 175.495 120.666L161.382 145.866L157.265 139.933C156.216 138.421 154.499 137.516 152.662 137.506C150.826 137.496 149.099 138.383 148.034 139.883L123.723 174.117C122.498 175.842 122.337 178.109 123.305 179.991C124.273 181.873 126.208 183.055 128.321 183.055H206.463C208.406 183.055 210.213 182.054 211.245 180.404C212.277 178.753 212.39 176.687 211.544 174.934L185.496 120.971ZM166.814 159.279L180.045 135.655L197.463 171.741H139.266L152.579 152.994L157.26 159.74C158.37 161.339 160.223 162.254 162.165 162.16C164.106 162.066 165.863 160.978 166.814 159.279Z" fill="#C5C6C5"/>
<path fill-rule="evenodd" clip-rule="evenodd" d="M109.363 100.225C109.363 90.718 117.1 82.9629 126.584 82.9629H207.62C217.105 82.9629 224.841 90.718 224.841 100.225V181.46C224.841 190.967 217.105 198.722 207.62 198.722H126.584C117.1 198.722 109.363 190.967 109.363 181.46V100.225ZM126.584 94.2777C123.333 94.2777 120.651 96.967 120.651 100.225V181.46C120.651 184.718 123.333 187.407 126.584 187.407H207.62C210.871 187.407 213.554 184.718 213.554 181.46V100.225C213.554 96.967 210.871 94.2777 207.62 94.2777H126.584Z" fill="#C5C6C5"/>
<rect x="0.5" y="0.5" width="333" height="279" stroke="#E8E8E8"/>
</svg>
