<svg width="40" height="40" viewBox="0 0 154 160" fill="none" xmlns="http://www.w3.org/2000/svg">
<rect x="0.5" y="0.5" width="153" height="159" fill="white"/>
<path fill-rule="evenodd" clip-rule="evenodd" d="M39.6231 55.8919C39.6231 47.9605 46.0371 41.5308 53.9492 41.5308C61.8613 41.5308 68.2754 47.9605 68.2754 55.8919C68.2754 63.8233 61.8613 70.253 53.9492 70.253C46.0371 70.253 39.6231 63.8233 39.6231 55.8919ZM53.9492 52.8456C52.2709 52.8456 50.9103 54.2095 50.9103 55.8919C50.9103 57.5743 52.2709 58.9382 53.9492 58.9382C55.6276 58.9382 56.9881 57.5743 56.9881 55.8919C56.9881 54.2095 55.6276 52.8456 53.9492 52.8456Z" fill="#C5C6C5"/>
<path fill-rule="evenodd" clip-rule="evenodd" d="M95.496 60.971C94.5804 59.0741 92.6889 57.8445 90.5876 57.7803C88.4864 57.7162 86.5238 58.8281 85.4947 60.6656L71.3818 85.8656L67.2647 79.9328C66.2158 78.4214 64.4989 77.5162 62.6624 77.5062C60.8258 77.4962 59.0992 78.3827 58.0341 79.8826L33.723 114.117C32.498 115.842 32.3365 118.109 33.3046 119.991C34.2727 121.873 36.2083 123.055 38.3207 123.055H116.463C118.406 123.055 120.213 122.054 121.245 120.404C122.277 118.753 122.39 116.687 121.544 114.934L95.496 60.971ZM76.8143 99.2787L90.0446 75.6548L107.463 111.741H49.2658L62.5786 92.9937L67.2602 99.7399C68.3702 101.339 70.2232 102.254 72.1646 102.16C74.1061 102.066 75.8628 100.978 76.8143 99.2787Z" fill="#C5C6C5"/>
<path fill-rule="evenodd" clip-rule="evenodd" d="M19.3633 40.2252C19.3633 30.718 27.0995 22.9629 36.5836 22.9629H117.62C127.105 22.9629 134.841 30.718 134.841 40.2252V121.46C134.841 130.967 127.105 138.722 117.62 138.722H36.5836C27.0995 138.722 19.3633 130.967 19.3633 121.46V40.2252ZM36.5836 34.2777C33.3333 34.2777 30.6506 36.967 30.6506 40.2252V121.46C30.6506 124.718 33.3333 127.407 36.5836 127.407H117.62C120.871 127.407 123.554 124.718 123.554 121.46V40.2252C123.554 36.967 120.871 34.2777 117.62 34.2777H36.5836Z" fill="#C5C6C5"/>
<rect x="0.5" y="0.5" width="153" height="159" stroke="#E8E8E8"/>
</svg>
